<svg xmlns="http://www.w3.org/2000/svg"
    viewBox="0 0 445 376"
    aria-hidden="true">
    <path
        d="M60.36,295.469c-125.447,-110.374 -41.352,-294.724 123.743,-295.254c90.316,-0.29 115.943,-2.506 159.676,17.45c149.279,68.118 126.181,274.252 -30.457,315.549c-28.321,7.467 -118.389,12 -173.893,0.977c-4.603,-0.914 -54.297,29.708 -71.932,39.221c-10.57,5.702 -18.267,-0.484 -15.991,-11.411c12.436,-59.699 14.398,-61.206 8.854,-66.532Zm297.837,0.467c123.489,-91.514 54.966,-202.16 30.2,-227.375c-54.153,-55.132 -104.705,-54.052 -210.821,-52.488c-80.403,1.185 -152.579,60.966 -160.447,137.257c-9.251,89.706 61.138,135.96 62.611,138.011c2.667,3.715 2.334,4.342 -9.084,56.437c-2.804,12.792 6.597,1.429 52.843,-24.435c22.032,-12.322 23.525,0.374 58.431,0.658c115.533,0.938 130.407,-0.206 176.269,-28.067Zm-137.983,-169.943c-7.596,-16.134 -7.884,-17.237 -8.922,-16.184c-1.957,1.987 1.359,2.579 0.246,34.854c-0.047,1.351 -8.242,1.363 -8.967,1.364c-4.122,0.006 -2.979,-2.526 -2.728,-51.45c0.043,-8.448 4.23,-4.702 12.533,-4.667c4.598,0.02 13.956,25.561 17.633,31.566c1.204,1.967 1.685,-0.437 13.331,-25.557c4.018,-8.667 6.251,-6.065 15.79,-6.008c1.798,0.011 2.648,0.826 2.713,52.511c0.008,6.333 -2.947,3.894 -9.298,3.749c-6.013,-0.137 -2.392,-3.43 -2.386,-14.63c0.005,-10.619 0.281,-10.349 0.396,-20.708c0.09,-8.081 -13.977,28.835 -16.414,29.48c-11.563,3.06 -8.74,-3.638 -13.927,-14.321l-0.001,0Zm11.092,77.372c-12.955,54.734 -87.446,13.74 -55.473,-24.722c16.06,-19.32 57.925,-14.253 55.473,24.722Zm-53.726,-7.47c9.831,-0.833 7.186,-9.365 1.09,-8.865c-2.778,0.228 -9.526,8.032 -1.09,8.865Zm48.159,-4.673c-5.012,-11.041 -11.171,0.005 -7.558,4.137c4.759,5.443 8.243,3.026 7.558,-4.137Zm-27.996,28.365c-0.61,-3.749 0.077,-4.433 -1.622,-4.616c-6.741,-0.726 -5.255,3.385 -0.843,8.608c2.368,2.803 2.031,-0.479 2.465,-3.992Zm9.127,1.053c2.147,-3.99 2.318,-3.918 2.319,-4.309c0.002,-0.7 -6.167,-7.907 -6.845,5.444c-0.213,4.195 4.278,-0.856 4.526,-1.135l0,-0Zm-1.026,-38.336c8.893,-0.491 -3.407,-11.811 -3.373,-7.299c0.033,4.25 -1.553,5.683 3.373,7.299Zm-11.948,-0.109c8.272,-1.872 3.036,-10.888 0.321,-6.917c-2.7,3.948 -4.818,5.547 -0.321,6.917Zm-11.139,36.599c6.778,5.491 3.056,-2.928 1.341,-3.535c-7.254,-2.572 -1.552,3.318 -1.341,3.535Zm34.982,-0.359c1.997,-2.135 1.988,-1.901 1.997,-2.135c0.022,-0.615 -2.054,-4.864 -6.864,3.464c-2.63,4.554 4.55,-1.08 4.867,-1.329Zm-35.073,-39.472c-4.439,6.156 6.886,0.492 4.215,-2.466c-1.014,-1.123 -1.108,-0.089 -4.215,2.466Zm35.237,0.3c-3.05,-2.239 -3.308,-3.709 -4.416,-2.05c-1.691,2.53 9.533,11.033 4.416,2.05Zm-25.099,30.821c3.882,-0.401 4.659,0.566 4.901,-1.484c1.497,-12.636 -10.226,-7.302 -10.234,-6.376c-0.045,5.788 -0.451,7.458 5.332,7.86Zm-4.992,-19.76c-0.927,9.701 10.419,8.795 9.945,-1.137c-0.111,-2.33 -6.532,-2.148 -7.127,-2.131c-1.727,0.049 -1.257,0.565 -2.818,3.268Zm24.205,16.164c1.233,-10.55 -9.236,-4.754 -9.363,-4.268c-2.042,7.788 6.586,12.649 9.363,4.268Zm-5.091,-19.19c-5.043,1.095 -4.599,2.28 -4.199,7.247c0.147,1.818 9.357,1.951 9.881,0.132c1.645,-5.709 0.181,-6.422 -5.682,-7.379l0,0Zm-32.927,17.149c5.047,14.076 9.405,5.18 9.359,4.356c-0.746,-13.438 -9.61,-8.698 -9.359,-4.356Zm43.388,0.952c-0.266,6.334 2.185,8.853 6.746,4.21c6.138,-6.248 3.117,-11.48 -5.236,-8.48c-1.103,0.396 -0.661,0.56 -1.51,4.271l0,0Zm-55.277,-28.286c-15.894,48.404 -15.308,49.908 -18.234,49.99c-6.443,0.181 -10.226,0.924 -11.605,-3.276c-10.906,-33.22 -10.911,-37.071 -12.01,-34.373c-2.431,5.97 -9.128,37.599 -13.343,37.67c-7.336,0.125 -9.671,3.715 -12.076,-3.139c-0.429,-1.224 -16.721,-50.967 -15.965,-52.11c0.86,-1.301 12.117,-1.658 13.035,0.881c2.989,8.266 10.348,43.216 11.927,37.214c7.369,-28 9.899,-38.974 13.959,-39.084c14.271,-0.385 11.301,6.356 13.486,13.79c7.478,25.441 7.916,27.879 9.042,25.987c1.602,-2.69 -0.922,-3.429 10.079,-37.812c0.676,-2.112 10.942,-1.943 11.906,-1.927c2.922,0.048 1.033,1.449 -0.204,6.19l-0,0Zm168.833,49.514c-1.731,0.046 -28.407,2.429 -28.447,-1.589c-0.501,-51.077 -2.084,-53.768 2.224,-53.802c11.307,-0.09 46.98,-5.211 49.94,25.536c2.253,23.397 -20.758,29.119 -23.718,29.855l-0,0Zm-3.29,-44.489c-3.624,-0.086 -12.846,-2.733 -12.831,3.755c0.03,13.167 -0.877,30.486 1.889,30.555c36.968,0.922 29.417,-30.105 10.942,-34.31l0,0Zm-28.319,-36.038c-7.015,-0.568 -7.8,0.081 -7.847,-1.449c-0.484,-15.842 1.024,-16.356 -6.83,-30.19c-1.021,-1.799 -1.117,-1.685 -13.137,-22.266c-1.922,-3.29 11.56,-3.434 13.226,-0.586c10.828,18.503 11.261,26.282 15.04,19.548c6.94,-12.366 10.951,-21.11 14.756,-21.198c10.153,-0.236 9.876,1.627 9.481,2.3c-14.057,23.997 -19.909,22.402 -19.98,50.15c-0.013,5.223 -3.276,3.49 -4.71,3.691l0,0Zm-31.762,67.114c-5.947,-7.596 -13.453,-2.271 -13.449,-1.217c0.006,1.478 0.16,37.47 -12.066,13.992c-0.229,-0.44 -0.26,-48.415 -0.162,-52.049c0.089,-3.321 6.403,-3.288 25.903,-2.813c23.26,0.567 28.793,23.642 11.48,36.064c-3.024,2.17 14.905,20.18 9.202,20.138c-17.217,-0.125 -15.217,-5.163 -20.909,-14.115Zm-0.854,-31.386c-11.067,0.145 -11.637,-0.687 -12.55,1c-6.982,12.901 -2.249,16.895 12.563,16.364c10.993,-0.393 16.434,-15.346 -0.013,-17.365l-0,0Zm-134.734,-35.519c-37.239,-8.98 -25.898,-42.593 -13.898,-51.327c40.272,-29.308 77.832,50.737 13.898,51.327Zm13.639,-14.084c16.764,-16.465 1.123,-29.922 -4.389,-31.773c-29.53,-9.916 -29.345,48.73 4.389,31.773Z"
        style="fill:#000000;" />
</svg>
